<?xml version="1.0" encoding="utf-8"?>
<!-- Generator: Adobe Illustrator 27.1.1, SVG Export Plug-In . SVG Version: 6.00 Build 0)  -->
<svg version="1.1" id="NetzeBW_x5F_Logo" xmlns="http://www.w3.org/2000/svg" xmlns:xlink="http://www.w3.org/1999/xlink" x="0px"
	 y="0px" width="1240px" height="270px" viewBox="0 0 1240 270" style="enable-background:new 0 0 1240 270;" xml:space="preserve">
<style type="text/css">
	.st0{fill:#000099;}
	.st1{fill:#FE8F11;}
</style>
<g>
	<g>
		<path class="st0" d="M636.156,71.823h-21.768v30.945H602.01v16.646h12.378v61.462c0,3.841,0.604,7.576,1.814,11.204
			c1.207,3.628,3.021,6.829,5.442,9.603c2.417,2.774,5.475,5.015,9.176,6.722c3.698,1.708,8.11,2.561,13.231,2.561h13.018v-18.567
			h-8.963c-4.128,0-7.149-1.1-9.07-3.308c-1.921-2.204-2.881-5.298-2.881-9.283v-60.395h20.914v-16.646h-20.914V71.823z"/>
		<path class="st0" d="M575.23,115.893c-3.915-4.622-8.716-8.18-14.405-10.671c-5.692-2.487-12.164-3.735-19.42-3.735
			c-13.945,0-25.076,4.769-33.399,14.299c-8.323,9.534-12.484,23.192-12.484,40.975c0,10.244,1.281,18.924,3.841,26.036
			c2.561,7.116,6.009,12.842,10.35,17.18c4.338,4.342,9.46,7.47,15.365,9.39c5.902,1.921,12.271,2.881,19.1,2.881
			c4.695,0,8.926-0.357,12.698-1.067c3.768-0.71,7.256-1.778,10.457-3.201c3.201-1.421,6.189-3.164,8.963-5.229
			c2.774-2.061,5.582-4.515,8.43-7.362l-13.872-13.018c-3.841,3.841-7.649,6.652-11.418,8.429c-3.771,1.78-8.716,2.668-14.832,2.668
			c-8.963,0-15.792-2.701-20.487-8.11c-4.695-5.405-7.043-12.805-7.043-22.195h70.212v-9.176c0-7.823-1.034-14.972-3.094-21.448
			C582.13,126.066,579.142,120.517,575.23,115.893z M517.076,148.011c0.14-3.272,0.354-5.939,0.64-8.003
			c0.283-2.061,0.994-4.302,2.134-6.722c1.847-4.125,4.588-7.432,8.216-9.924c3.628-2.488,8.073-3.735,13.338-3.735
			c5.122,0,9.497,1.247,13.125,3.735c3.628,2.491,6.366,5.799,8.216,9.924c1.137,2.42,1.847,4.661,2.134,6.722
			c0.283,2.064,0.567,4.732,0.854,8.003H517.076z"/>
		<polygon class="st0" points="451.34,165.724 381.129,59.019 360.001,59.019 360.001,210.966 383.049,210.966 383.049,104.048 
			453.261,210.966 474.389,210.966 474.389,59.019 451.34,59.019 		"/>
		<path class="st0" d="M851.942,115.893c-3.915-4.622-8.716-8.18-14.405-10.671c-5.692-2.487-12.164-3.735-19.42-3.735
			c-13.945,0-25.076,4.769-33.399,14.299c-8.323,9.534-12.484,23.192-12.484,40.975c0,10.244,1.281,18.924,3.841,26.036
			c2.561,7.116,6.009,12.842,10.35,17.18c4.338,4.342,9.46,7.47,15.365,9.39c5.902,1.921,12.271,2.881,19.1,2.881
			c4.695,0,8.926-0.357,12.698-1.067c3.768-0.71,7.256-1.778,10.457-3.201c3.201-1.421,6.189-3.164,8.963-5.229
			c2.774-2.061,5.582-4.515,8.43-7.362l-13.872-13.018c-3.841,3.841-7.649,6.652-11.418,8.429c-3.771,1.78-8.716,2.668-14.832,2.668
			c-8.963,0-15.792-2.701-20.487-8.11c-4.695-5.405-7.043-12.805-7.043-22.195H864v-9.176c0-7.823-1.034-14.972-3.094-21.448
			C858.842,126.066,855.854,120.517,851.942,115.893z M793.788,148.011c0.14-3.272,0.354-5.939,0.64-8.003
			c0.283-2.061,0.994-4.302,2.134-6.722c1.847-4.125,4.588-7.432,8.216-9.924c3.628-2.488,8.073-3.735,13.338-3.735
			c5.122,0,9.497,1.247,13.125,3.735c3.628,2.491,6.366,5.799,8.216,9.924c1.137,2.42,1.847,4.661,2.134,6.722
			c0.283,2.064,0.567,4.732,0.854,8.003H793.788z"/>
		<polygon class="st0" points="679.968,122.188 730.759,122.188 676.98,193.68 676.98,210.966 757.649,210.966 757.649,191.546 
			703.443,191.546 757.649,120.054 757.649,102.768 679.968,102.768 		"/>
		<polygon class="st0" points="1215.671,59.019 1189.209,167.644 1158.691,59.019 1140.125,59.019 1109.607,167.644 
			1083.144,59.019 1058.815,59.019 1098.51,210.966 1118.57,210.966 1149.301,104.475 1180.245,210.966 1200.306,210.966 
			1240,59.019 		"/>
		<path class="st0" d="M1038.35,145.023c-2.134-2.845-4.555-5.299-7.256-7.363c-2.704-2.061-5.548-3.661-8.536-4.802
			c2.561-0.994,5.048-2.454,7.469-4.375c2.418-1.921,4.589-4.268,6.509-7.043s3.485-5.901,4.695-9.389
			c1.207-3.485,1.814-7.29,1.814-11.418c0-12.945-4.092-23.118-12.271-30.518c-8.183-7.396-19.387-11.097-33.612-11.097h-59.114
			v151.947h61.462c6.686,0,12.838-0.924,18.46-2.774c5.619-1.848,10.457-4.589,14.512-8.217c4.055-3.627,7.219-8.11,9.496-13.445
			c2.274-5.335,3.415-11.487,3.415-18.459c0-4.835-0.64-9.177-1.921-13.019C1042.192,151.211,1040.484,147.87,1038.35,145.023z
			 M961.096,79.719h34.146c7.396,0,13.372,1.851,17.926,5.548c4.551,3.702,6.829,9.107,6.829,16.219
			c0,7.116-2.277,12.522-6.829,16.219c-4.555,3.702-10.53,5.549-17.926,5.549h-34.146V79.719z M1015.943,183.757
			c-4.268,4.341-10.457,6.508-18.567,6.508h-36.28v-46.31h36.28c8.11,0,14.299,2.135,18.567,6.402
			c4.268,4.269,6.402,9.817,6.402,16.647C1022.345,173.833,1020.21,179.419,1015.943,183.757z"/>
	</g>
	<g>
		<g>
			<path class="st0" d="M24.22,63.174c-5.541-5.541-14.524-5.54-20.064,0c-5.541,5.541-5.541,14.524,0,20.064l90.716,90.716
				c5.541,5.541,14.523,5.541,20.064,0c5.541-5.541,5.541-14.523,0-20.064L24.22,63.174z"/>
			<path class="st0" d="M83.238,4.156c-5.541-5.541-14.524-5.54-20.064,0c-5.54,5.54-5.54,14.523,0,20.064l31.697,31.697
				c5.541,5.541,14.524,5.541,20.064,0s5.541-14.523,0-20.064L83.238,4.156z"/>
			<path class="st0" d="M265.845,186.762l-90.716-90.716c-5.541-5.541-14.523-5.541-20.064,0s-5.541,14.523,0,20.064l90.716,90.716
				c5.541,5.54,14.524,5.54,20.064,0C271.385,201.285,271.385,192.302,265.845,186.762z"/>
			<path class="st0" d="M175.128,214.083c-5.541-5.541-14.523-5.541-20.064,0s-5.541,14.523,0,20.064l31.698,31.698
				c5.54,5.541,14.524,5.54,20.064,0c5.54-5.54,5.54-14.523,0-20.064L175.128,214.083z"/>
		</g>
		<g>
			<path class="st1" d="M55.917,155.064c-5.541-5.541-14.523-5.541-20.064,0L4.156,186.761c-5.541,5.541-5.541,14.524,0,20.064
				c5.541,5.54,14.524,5.54,20.064,0l31.697-31.697C61.457,169.588,61.457,160.605,55.917,155.064z"/>
			<path class="st1" d="M206.826,4.155c-5.541-5.541-14.524-5.541-20.064,0L96.045,94.872c-5.541,5.541-5.541,14.523,0,20.064
				c5.541,5.541,14.523,5.541,20.064,0l90.716-90.716C212.366,18.679,212.366,9.696,206.826,4.155z"/>
			<path class="st1" d="M153.89,155.064L63.174,245.78c-5.541,5.541-5.541,14.524,0,20.064c5.541,5.541,14.524,5.541,20.064,0
				l90.716-90.716c5.541-5.541,5.541-14.523,0-20.064S159.431,149.524,153.89,155.064z"/>
			<path class="st1" d="M265.844,63.174c-5.54-5.54-14.523-5.54-20.064,0l-31.697,31.698c-5.541,5.541-5.541,14.523,0,20.064
				c5.541,5.541,14.523,5.541,20.064,0l31.697-31.698C271.385,77.698,271.385,68.715,265.844,63.174z"/>
		</g>
	</g>
</g>
</svg>
